<svg width="600" height="540" viewBox="0 0 600 540" fill="none" xmlns="http://www.w3.org/2000/svg">
<rect x="7.9046" y="401.16" width="138.05" height="138.05" fill="#7ACC7A"/>
<path d="M76.8211 503.788C72.5086 503.788 68.6644 503.048 65.2884 501.567C61.9343 500.086 59.2662 498.028 57.2842 495.392C55.3239 492.735 54.2567 489.653 54.0825 486.146H62.3154C62.4897 488.303 63.2302 490.165 64.537 491.733C65.8438 493.279 67.5536 494.477 69.6663 495.327C71.779 496.176 74.1203 496.601 76.6904 496.601C79.5654 496.601 82.1137 496.1 84.3353 495.098C86.5569 494.096 88.2993 492.702 89.5626 490.916C90.8258 489.13 91.4575 487.061 91.4575 484.709C91.4575 482.248 90.8476 480.081 89.6279 478.207C88.4082 476.313 86.6222 474.832 84.27 473.764C81.9177 472.697 79.0427 472.163 75.645 472.163H70.287V464.976H75.645C78.3022 464.976 80.6326 464.497 82.6364 463.538C84.662 462.58 86.2411 461.23 87.3737 459.487C88.528 457.745 89.1052 455.698 89.1052 453.345C89.1052 451.08 88.6042 449.109 87.6023 447.432C86.6005 445.755 85.1847 444.448 83.3552 443.511C81.5474 442.575 79.413 442.107 76.9518 442.107C74.6431 442.107 72.465 442.531 70.4177 443.381C68.3921 444.208 66.7368 445.417 65.4518 447.007C64.1667 448.575 63.4698 450.47 63.3609 452.692H55.52C55.6506 449.185 56.707 446.114 58.689 443.479C60.671 440.822 63.2629 438.752 66.4646 437.271C69.688 435.79 73.2273 435.05 77.0825 435.05C81.2207 435.05 84.7709 435.888 87.733 437.565C90.6951 439.221 92.9712 441.41 94.5612 444.132C96.1511 446.855 96.9461 449.795 96.9461 452.953C96.9461 456.721 95.9551 459.934 93.9731 462.591C92.0129 465.248 89.3448 467.089 85.9688 468.112V468.635C90.1942 469.332 93.4939 471.129 95.868 474.026C98.242 476.901 99.429 480.462 99.429 484.709C99.429 488.346 98.438 491.613 96.456 494.51C94.4958 497.385 91.8168 499.65 88.4191 501.305C85.0214 502.961 81.1554 503.788 76.8211 503.788Z" fill="#006600"/>
<rect x="454.516" y="401.16" width="138.05" height="138.05" fill="#7ACC7A"/>
<path d="M523.432 503.788C519.12 503.788 515.276 503.048 511.9 501.567C508.546 500.086 505.878 498.028 503.896 495.392C501.935 492.735 500.868 489.653 500.694 486.146H508.927C509.101 488.303 509.842 490.165 511.148 491.733C512.455 493.279 514.165 494.477 516.278 495.327C518.39 496.176 520.732 496.601 523.302 496.601C526.177 496.601 528.725 496.1 530.947 495.098C533.168 494.096 534.911 492.702 536.174 490.916C537.437 489.13 538.069 487.061 538.069 484.709C538.069 482.248 537.459 480.081 536.239 478.207C535.02 476.313 533.234 474.832 530.881 473.764C528.529 472.697 525.654 472.163 522.256 472.163H516.898V464.976H522.256C524.914 464.976 527.244 464.497 529.248 463.538C531.273 462.58 532.852 461.23 533.985 459.487C535.139 457.745 535.717 455.698 535.717 453.345C535.717 451.08 535.216 449.109 534.214 447.432C533.212 445.755 531.796 444.448 529.967 443.511C528.159 442.575 526.024 442.107 523.563 442.107C521.254 442.107 519.076 442.531 517.029 443.381C515.004 444.208 513.348 445.417 512.063 447.007C510.778 448.575 510.081 450.47 509.972 452.692H502.131C502.262 449.185 503.318 446.114 505.3 443.479C507.282 440.822 509.874 438.752 513.076 437.271C516.299 435.79 519.839 435.05 523.694 435.05C527.832 435.05 531.382 435.888 534.344 437.565C537.307 439.221 539.583 441.41 541.173 444.132C542.763 446.855 543.557 449.795 543.557 452.953C543.557 456.721 542.566 459.934 540.584 462.591C538.624 465.248 535.956 467.089 532.58 468.112V468.635C536.806 469.332 540.105 471.129 542.479 474.026C544.853 476.901 546.04 480.462 546.04 484.709C546.04 488.346 545.049 491.613 543.067 494.51C541.107 497.385 538.428 499.65 535.031 501.305C531.633 502.961 527.767 503.788 523.432 503.788Z" fill="#006600"/>
<path d="M420.816 280.031H395.149L387.816 272.698H351.149L343.816 280.031H318.149V294.698H420.816V280.031ZM325.483 302.031V390.031C325.483 398.098 332.083 404.698 340.149 404.698H398.816C406.883 404.698 413.483 398.098 413.483 390.031V302.031H325.483ZM384.149 353.364V382.698H354.816V353.364H340.149L369.483 324.031L398.816 353.364H384.149Z" fill="#CC7A7A"/>
<path d="M346.409 412.516V438.698H343.238V415.84H343.085L336.693 420.084V416.862L343.238 412.516H346.409ZM362.785 439.056C361.098 439.056 359.593 438.766 358.272 438.186C356.96 437.607 355.916 436.801 355.14 435.77C354.373 434.73 353.956 433.524 353.887 432.152H357.109C357.177 432.996 357.467 433.725 357.978 434.338C358.49 434.943 359.159 435.412 359.985 435.745C360.812 436.077 361.728 436.243 362.734 436.243C363.859 436.243 364.856 436.047 365.725 435.655C366.595 435.263 367.277 434.718 367.771 434.019C368.265 433.32 368.512 432.51 368.512 431.59C368.512 430.627 368.274 429.779 367.797 429.046C367.319 428.304 366.62 427.725 365.7 427.307C364.779 426.889 363.654 426.681 362.325 426.681H360.228V423.868H362.325C363.365 423.868 364.277 423.681 365.061 423.306C365.853 422.931 366.471 422.402 366.914 421.72C367.366 421.039 367.592 420.237 367.592 419.317C367.592 418.431 367.396 417.659 367.004 417.003C366.612 416.347 366.058 415.835 365.342 415.469C364.635 415.103 363.799 414.919 362.836 414.919C361.933 414.919 361.081 415.085 360.279 415.418C359.487 415.742 358.839 416.215 358.336 416.837C357.833 417.451 357.561 418.192 357.518 419.061H354.45C354.501 417.689 354.914 416.487 355.69 415.456C356.466 414.416 357.48 413.607 358.733 413.027C359.994 412.448 361.379 412.158 362.887 412.158C364.507 412.158 365.896 412.486 367.055 413.142C368.214 413.79 369.105 414.647 369.727 415.712C370.349 416.777 370.66 417.928 370.66 419.164C370.66 420.638 370.272 421.895 369.497 422.935C368.73 423.975 367.686 424.695 366.365 425.095V425.3C368.018 425.573 369.309 426.276 370.238 427.409C371.167 428.534 371.632 429.928 371.632 431.59C371.632 433.013 371.244 434.291 370.468 435.425C369.701 436.55 368.653 437.436 367.324 438.084C365.994 438.732 364.481 439.056 362.785 439.056ZM390.207 433.789V432.408C390.207 431.453 390.403 430.58 390.795 429.787C391.196 428.986 391.775 428.347 392.534 427.87C393.301 427.384 394.23 427.141 395.321 427.141C396.429 427.141 397.358 427.384 398.108 427.87C398.858 428.347 399.424 428.986 399.808 429.787C400.191 430.58 400.383 431.453 400.383 432.408V433.789C400.383 434.743 400.187 435.621 399.795 436.422C399.412 437.215 398.841 437.854 398.082 438.34C397.332 438.817 396.412 439.056 395.321 439.056C394.213 439.056 393.279 438.817 392.521 438.34C391.762 437.854 391.187 437.215 390.795 436.422C390.403 435.621 390.207 434.743 390.207 433.789ZM392.815 432.408V433.789C392.815 434.581 393.002 435.293 393.377 435.924C393.752 436.546 394.4 436.857 395.321 436.857C396.216 436.857 396.846 436.546 397.213 435.924C397.588 435.293 397.775 434.581 397.775 433.789V432.408C397.775 431.615 397.596 430.908 397.238 430.286C396.88 429.655 396.241 429.34 395.321 429.34C394.426 429.34 393.782 429.655 393.39 430.286C393.007 430.908 392.815 431.615 392.815 432.408ZM377.167 418.806V417.425C377.167 416.47 377.363 415.597 377.755 414.804C378.156 414.003 378.735 413.364 379.494 412.887C380.261 412.401 381.19 412.158 382.281 412.158C383.389 412.158 384.318 412.401 385.068 412.887C385.818 413.364 386.385 414.003 386.768 414.804C387.152 415.597 387.343 416.47 387.343 417.425V418.806C387.343 419.76 387.147 420.638 386.755 421.439C386.372 422.232 385.801 422.871 385.042 423.357C384.292 423.834 383.372 424.073 382.281 424.073C381.173 424.073 380.24 423.834 379.481 423.357C378.723 422.871 378.147 422.232 377.755 421.439C377.363 420.638 377.167 419.76 377.167 418.806ZM379.775 417.425V418.806C379.775 419.598 379.963 420.31 380.338 420.941C380.713 421.563 381.36 421.874 382.281 421.874C383.176 421.874 383.806 421.563 384.173 420.941C384.548 420.31 384.735 419.598 384.735 418.806V417.425C384.735 416.632 384.556 415.925 384.199 415.303C383.841 414.672 383.201 414.357 382.281 414.357C381.386 414.357 380.743 414.672 380.35 415.303C379.967 415.925 379.775 416.632 379.775 417.425ZM378.139 438.698L396.139 412.516H399.054L381.054 438.698H378.139Z" fill="#660000"/>
<path d="M281.497 280.031H255.83L248.497 272.698H211.83L204.497 280.031H178.83V294.698H281.497V280.031ZM186.164 302.031V390.031C186.164 398.098 192.764 404.698 200.83 404.698H259.497C267.564 404.698 274.164 398.098 274.164 390.031V302.031H186.164ZM244.83 353.364V382.698H215.497V353.364H200.83L230.164 324.031L259.497 353.364H244.83Z" fill="#CC7A7A"/>
<path d="M207.09 412.516V438.698H203.919V415.84H203.766L197.374 420.084V416.862L203.919 412.516H207.09ZM223.466 439.056C221.779 439.056 220.274 438.766 218.953 438.186C217.641 437.607 216.597 436.801 215.821 435.77C215.054 434.73 214.637 433.524 214.568 432.152H217.79C217.858 432.996 218.148 433.725 218.659 434.338C219.171 434.943 219.84 435.412 220.666 435.745C221.493 436.077 222.409 436.243 223.415 436.243C224.54 436.243 225.537 436.047 226.406 435.655C227.276 435.263 227.958 434.718 228.452 434.019C228.946 433.32 229.193 432.51 229.193 431.59C229.193 430.627 228.955 429.779 228.477 429.046C228 428.304 227.301 427.725 226.381 427.307C225.46 426.889 224.335 426.681 223.006 426.681H220.909V423.868H223.006C224.046 423.868 224.958 423.681 225.742 423.306C226.534 422.931 227.152 422.402 227.595 421.72C228.047 421.039 228.273 420.237 228.273 419.317C228.273 418.431 228.077 417.659 227.685 417.003C227.293 416.347 226.739 415.835 226.023 415.469C225.316 415.103 224.48 414.919 223.517 414.919C222.614 414.919 221.762 415.085 220.96 415.418C220.168 415.742 219.52 416.215 219.017 416.837C218.514 417.451 218.242 418.192 218.199 419.061H215.131C215.182 417.689 215.595 416.487 216.371 415.456C217.147 414.416 218.161 413.607 219.414 413.027C220.675 412.448 222.06 412.158 223.568 412.158C225.188 412.158 226.577 412.486 227.736 413.142C228.895 413.79 229.786 414.647 230.408 415.712C231.03 416.777 231.341 417.928 231.341 419.164C231.341 420.638 230.953 421.895 230.178 422.935C229.411 423.975 228.367 424.695 227.046 425.095V425.3C228.699 425.573 229.99 426.276 230.919 427.409C231.848 428.534 232.313 429.928 232.313 431.59C232.313 433.013 231.925 434.291 231.149 435.425C230.382 436.55 229.334 437.436 228.004 438.084C226.675 438.732 225.162 439.056 223.466 439.056ZM250.888 433.789V432.408C250.888 431.453 251.084 430.58 251.476 429.787C251.877 428.986 252.456 428.347 253.215 427.87C253.982 427.384 254.911 427.141 256.002 427.141C257.11 427.141 258.039 427.384 258.789 427.87C259.539 428.347 260.105 428.986 260.489 429.787C260.872 430.58 261.064 431.453 261.064 432.408V433.789C261.064 434.743 260.868 435.621 260.476 436.422C260.093 437.215 259.522 437.854 258.763 438.34C258.013 438.817 257.093 439.056 256.002 439.056C254.894 439.056 253.96 438.817 253.202 438.34C252.443 437.854 251.868 437.215 251.476 436.422C251.084 435.621 250.888 434.743 250.888 433.789ZM253.496 432.408V433.789C253.496 434.581 253.683 435.293 254.058 435.924C254.433 436.546 255.081 436.857 256.002 436.857C256.897 436.857 257.527 436.546 257.894 435.924C258.269 435.293 258.456 434.581 258.456 433.789V432.408C258.456 431.615 258.277 430.908 257.919 430.286C257.561 429.655 256.922 429.34 256.002 429.34C255.107 429.34 254.463 429.655 254.071 430.286C253.688 430.908 253.496 431.615 253.496 432.408ZM237.848 418.806V417.425C237.848 416.47 238.044 415.597 238.436 414.804C238.837 414.003 239.416 413.364 240.175 412.887C240.942 412.401 241.871 412.158 242.962 412.158C244.07 412.158 244.999 412.401 245.749 412.887C246.499 413.364 247.066 414.003 247.449 414.804C247.833 415.597 248.024 416.47 248.024 417.425V418.806C248.024 419.76 247.828 420.638 247.436 421.439C247.053 422.232 246.482 422.871 245.723 423.357C244.973 423.834 244.053 424.073 242.962 424.073C241.854 424.073 240.921 423.834 240.162 423.357C239.404 422.871 238.828 422.232 238.436 421.439C238.044 420.638 237.848 419.76 237.848 418.806ZM240.456 417.425V418.806C240.456 419.598 240.644 420.31 241.019 420.941C241.394 421.563 242.041 421.874 242.962 421.874C243.857 421.874 244.487 421.563 244.854 420.941C245.229 420.31 245.416 419.598 245.416 418.806V417.425C245.416 416.632 245.237 415.925 244.879 415.303C244.522 414.672 243.882 414.357 242.962 414.357C242.067 414.357 241.424 414.672 241.031 415.303C240.648 415.925 240.456 416.632 240.456 417.425ZM238.82 438.698L256.82 412.516H259.735L241.735 438.698H238.82Z" fill="#660000"/>
<path d="M76.6943 285.991L0 153.152L153.389 153.152L76.6943 285.991Z" fill="#CC7A7A"/>
<path d="M77.8092 237.007C73.4967 237.007 69.6525 236.267 66.2765 234.786C62.9224 233.305 60.2543 231.246 58.2723 228.611C56.312 225.954 55.2448 222.872 55.0706 219.365H63.3035C63.4778 221.522 64.2183 223.384 65.5251 224.952C66.8319 226.498 68.5417 227.696 70.6544 228.546C72.7671 229.395 75.1084 229.82 77.6785 229.82C80.5535 229.82 83.1018 229.319 85.3234 228.317C87.545 227.315 89.2874 225.921 90.5507 224.135C91.8139 222.349 92.4456 220.28 92.4456 217.928C92.4456 215.467 91.8357 213.299 90.616 211.426C89.3963 209.531 87.6103 208.05 85.2581 206.983C82.9058 205.916 80.0308 205.382 76.6331 205.382H71.2751V198.195H76.6331C79.2903 198.195 81.6207 197.716 83.6245 196.757C85.6501 195.799 87.2292 194.449 88.3617 192.706C89.5161 190.964 90.0933 188.916 90.0933 186.564C90.0933 184.299 89.5923 182.328 88.5904 180.651C87.5885 178.974 86.1728 177.667 84.3433 176.73C82.5355 175.794 80.401 175.325 77.9399 175.325C75.6312 175.325 73.4531 175.75 71.4058 176.6C69.3802 177.427 67.7249 178.636 66.4399 180.226C65.1548 181.794 64.4579 183.689 64.349 185.911H56.5081C56.6387 182.404 57.6951 179.333 59.6771 176.698C61.6591 174.04 64.251 171.971 67.4527 170.49C70.6761 169.009 74.2154 168.269 78.0706 168.269C82.2088 168.269 85.759 169.107 88.7211 170.784C91.6832 172.44 93.9593 174.629 95.5492 177.351C97.1392 180.074 97.9342 183.014 97.9342 186.172C97.9342 189.94 96.9432 193.153 94.9612 195.81C93.001 198.467 90.3329 200.307 86.9569 201.331V201.854C91.1823 202.551 94.482 204.348 96.8561 207.245C99.2301 210.12 100.417 213.681 100.417 217.928C100.417 221.565 99.4261 224.832 97.4441 227.729C95.4839 230.604 92.8049 232.869 89.4072 234.524C86.0095 236.18 82.1435 237.007 77.8092 237.007Z" fill="#660000"/>
<path d="M523.306 285.991L446.611 153.152L600 153.152L523.306 285.991Z" fill="#CC7A7A"/>
<path d="M524.421 237.007C520.108 237.007 516.264 236.267 512.888 234.786C509.534 233.305 506.866 231.246 504.884 228.611C502.923 225.954 501.856 222.872 501.682 219.365H509.915C510.089 221.522 510.83 223.384 512.136 224.952C513.443 226.498 515.153 227.696 517.266 228.546C519.378 229.395 521.72 229.82 524.29 229.82C527.165 229.82 529.713 229.319 531.935 228.317C534.156 227.315 535.899 225.921 537.162 224.135C538.425 222.349 539.057 220.28 539.057 217.928C539.057 215.467 538.447 213.299 537.227 211.426C536.008 209.531 534.222 208.05 531.869 206.983C529.517 205.916 526.642 205.382 523.244 205.382H517.886V198.195H523.244C525.902 198.195 528.232 197.716 530.236 196.757C532.261 195.799 533.841 194.449 534.973 192.706C536.127 190.964 536.705 188.916 536.705 186.564C536.705 184.299 536.204 182.328 535.202 180.651C534.2 178.974 532.784 177.667 530.955 176.73C529.147 175.794 527.012 175.325 524.551 175.325C522.243 175.325 520.065 175.75 518.017 176.6C515.992 177.427 514.336 178.636 513.051 180.226C511.766 181.794 511.069 183.689 510.96 185.911H503.119C503.25 182.404 504.306 179.333 506.288 176.698C508.27 174.04 510.862 171.971 514.064 170.49C517.288 169.009 520.827 168.269 524.682 168.269C528.82 168.269 532.37 169.107 535.333 170.784C538.295 172.44 540.571 174.629 542.161 177.351C543.751 180.074 544.546 183.014 544.546 186.172C544.546 189.94 543.555 193.153 541.573 195.81C539.612 198.467 536.944 200.307 533.568 201.331V201.854C537.794 202.551 541.093 204.348 543.467 207.245C545.842 210.12 547.029 213.681 547.029 217.928C547.029 221.565 546.038 224.832 544.056 227.729C542.095 230.604 539.416 232.869 536.019 234.524C532.621 236.18 528.755 237.007 524.421 237.007Z" fill="#660000"/>
<circle cx="299.6" cy="57.5207" r="57.5207" fill="#7AB1CC"/>
<path d="M299.139 91.7598C294.826 91.7598 290.982 91.0193 287.606 89.5382C284.252 88.0572 281.584 85.9989 279.602 83.3635C277.642 80.7063 276.574 77.6244 276.4 74.1178H284.633C284.807 76.274 285.548 78.1362 286.855 79.7044C288.161 81.2508 289.871 82.4487 291.984 83.2982C294.097 84.1476 296.438 84.5723 299.008 84.5723C301.883 84.5723 304.431 84.0714 306.653 83.0695C308.875 82.0676 310.617 80.6736 311.88 78.8876C313.143 77.1017 313.775 75.0325 313.775 72.6803C313.775 70.2191 313.165 68.0519 311.946 66.1788C310.726 64.284 308.94 62.8029 306.588 61.7357C304.235 60.6684 301.36 60.1348 297.963 60.1348H292.605V52.9473H297.963C300.62 52.9473 302.95 52.4681 304.954 51.5098C306.98 50.5515 308.559 49.2011 309.691 47.4587C310.846 45.7162 311.423 43.6689 311.423 41.3166C311.423 39.0515 310.922 37.0804 309.92 35.4033C308.918 33.7262 307.502 32.4194 305.673 31.4828C303.865 30.5463 301.731 30.078 299.269 30.078C296.961 30.078 294.783 30.5027 292.735 31.3521C290.71 32.1798 289.054 33.3886 287.769 34.9786C286.484 36.5467 285.787 38.4416 285.678 40.6632H277.838C277.968 37.1566 279.025 34.0856 281.007 31.4501C282.989 28.7929 285.58 26.7238 288.782 25.2428C292.006 23.7617 295.545 23.0212 299.4 23.0212C303.538 23.0212 307.089 23.8597 310.051 25.5368C313.013 27.1921 315.289 29.381 316.879 32.1036C318.469 34.8261 319.264 37.7664 319.264 40.9246C319.264 44.6926 318.273 47.9052 316.291 50.5624C314.33 53.2196 311.662 55.06 308.286 56.0837V56.6064C312.512 57.3034 315.812 59.1002 318.186 61.997C320.56 64.872 321.747 68.4331 321.747 72.6803C321.747 76.3176 320.756 79.5846 318.774 82.4814C316.813 85.3564 314.134 87.6215 310.737 89.2768C307.339 90.9322 303.473 91.7598 299.139 91.7598Z" fill="#004466"/>
<path d="M115.288 218.012C114.547 217.641 113.646 217.942 113.275 218.683C112.905 219.424 113.205 220.325 113.946 220.695L115.288 218.012ZM209.947 268.204C210.733 267.942 211.158 267.093 210.896 266.307L206.627 253.5C206.365 252.714 205.515 252.289 204.729 252.551C203.943 252.813 203.519 253.662 203.78 254.448L207.575 265.832L196.191 269.627C195.405 269.889 194.98 270.739 195.242 271.525C195.504 272.31 196.354 272.735 197.14 272.473L209.947 268.204ZM113.946 220.695L208.802 268.123L210.143 265.439L115.288 218.012L113.946 220.695Z" fill="#808080"/>
<path d="M485.088 218.012C485.829 217.641 486.73 217.942 487.1 218.683C487.471 219.424 487.171 220.325 486.43 220.695L485.088 218.012ZM390.429 268.204C389.643 267.942 389.218 267.093 389.48 266.307L393.749 253.5C394.011 252.714 394.861 252.289 395.647 252.551C396.433 252.813 396.857 253.662 396.595 254.448L392.801 265.832L404.185 269.627C404.971 269.889 405.395 270.739 405.133 271.525C404.872 272.31 404.022 272.735 403.236 272.473L390.429 268.204ZM486.43 220.695L391.574 268.123L390.232 265.439L485.088 218.012L486.43 220.695Z" fill="#808080"/>
<path d="M75.244 154.948C75.0325 155.749 75.5104 156.57 76.3114 156.781L89.3642 160.227C90.1651 160.439 90.9859 159.961 91.1974 159.16C91.4088 158.359 90.931 157.538 90.13 157.327L78.5275 154.264L81.5908 142.661C81.8022 141.86 81.3244 141.039 80.5234 140.828C79.7224 140.616 78.9016 141.094 78.6902 141.895L75.244 154.948ZM244.289 56.0123L75.9396 154.035L77.4491 156.627L245.798 58.6048L244.289 56.0123Z" fill="#808080"/>
<path d="M525.132 154.948C525.343 155.749 524.865 156.57 524.064 156.781L511.012 160.227C510.211 160.439 509.39 159.961 509.178 159.16C508.967 158.359 509.445 157.538 510.246 157.327L521.848 154.264L518.785 142.661C518.574 141.86 519.051 141.039 519.852 140.828C520.653 140.616 521.474 141.094 521.686 141.895L525.132 154.948ZM356.087 56.0123L524.436 154.035L522.927 156.627L354.578 58.6048L356.087 56.0123Z" fill="#808080"/>
<path d="M75.6303 402.168C76.2143 402.756 77.164 402.759 77.7516 402.175L87.3278 392.66C87.9154 392.076 87.9185 391.126 87.3345 390.538C86.7506 389.951 85.8009 389.948 85.2132 390.532L76.7011 398.99L68.2427 390.478C67.6588 389.89 66.7091 389.887 66.1214 390.471C65.5338 391.055 65.5308 392.005 66.1147 392.592L75.6303 402.168ZM75.5701 282.586L75.1944 401.106L78.1943 401.116L78.5701 282.595L75.5701 282.586Z" fill="#808080"/>
<path d="M524.746 402.168C524.162 402.756 523.212 402.759 522.624 402.175L513.048 392.66C512.46 392.076 512.457 391.126 513.041 390.538C513.625 389.951 514.575 389.948 515.163 390.532L523.675 398.99L532.133 390.478C532.717 389.89 533.667 389.887 534.254 390.471C534.842 391.055 534.845 392.005 534.261 392.592L524.746 402.168ZM524.806 282.586L525.181 401.106L522.182 401.116L521.806 282.595L524.806 282.586Z" fill="#808080"/>
</svg>
