<svg xmlns="http://www.w3.org/2000/svg" width="600" height="542" viewBox="0 0 600 542" fill="none">
  <rect width="600" height="542" fill="#1E1E1E"/>
  <g id="main">
    <rect width="1440" height="1024" transform="translate(-61 -53)" fill="white"/>
    <g id="graph">
      <circle id="circle" cx="299.6" cy="57.5207" r="57.5207" fill="#7AB1CC"/>
      <path id="triangle1" d="M76.6943 285.991L0 153.152L153.389 153.152L76.6943 285.991Z" fill="#CC7A7A"/>
      <path id="triangle2" d="M523.306 285.991L446.611 153.152L600 153.152L523.306 285.991Z" fill="#CC7A7A"/>
      <path id="trash1" d="M281.497 280.031H255.83L248.497 272.698H211.83L204.497 280.031H178.83V294.698H281.497V280.031ZM186.164 302.031V390.031C186.164 398.098 192.764 404.698 200.83 404.698H259.497C267.564 404.698 274.164 398.098 274.164 390.031V302.031H186.164ZM244.83 353.364V382.698H215.497V353.364H200.83L230.164 324.031L259.497 353.364H244.83Z" [attr.fill]="trashColor1"/>
      <path id="trash2" d="M420.816 280.031H395.149L387.816 272.698H351.149L343.816 280.031H318.149V294.698H420.816V280.031ZM325.483 302.031V390.031C325.483 398.098 332.083 404.698 340.149 404.698H398.816C406.883 404.698 413.483 398.098 413.483 390.031V302.031H325.483ZM384.149 353.364V382.698H354.816V353.364H340.149L369.483 324.031L398.816 353.364H384.149Z" [attr.fill]="trashColor2"/>
      <rect id="square1" x="7.9046" y="403.16" width="138.05" height="138.05" fill="#7ACC7A"/>
      <rect id="square2" x="454.516" y="401.16" width="138.05" height="138.05" fill="#7ACC7A"/>
      <path id="Arrow 6" d="M115.288 218.012C114.547 217.641 113.646 217.942 113.275 218.683C112.905 219.424 113.205 220.325 113.946 220.695L115.288 218.012ZM209.947 268.204C210.733 267.942 211.158 267.093 210.896 266.307L206.627 253.5C206.365 252.714 205.515 252.289 204.729 252.551C203.943 252.813 203.519 253.662 203.78 254.448L207.575 265.832L196.191 269.627C195.405 269.889 194.98 270.739 195.242 271.525C195.504 272.31 196.354 272.735 197.14 272.473L209.947 268.204ZM113.946 220.695L208.802 268.123L210.143 265.439L115.288 218.012L113.946 220.695Z" fill="#808080"/>
      <path id="Arrow 7" d="M485.088 218.012C485.829 217.641 486.73 217.942 487.1 218.683C487.471 219.424 487.171 220.325 486.43 220.695L485.088 218.012ZM390.429 268.204C389.643 267.942 389.218 267.093 389.48 266.307L393.749 253.5C394.011 252.714 394.861 252.289 395.647 252.551C396.433 252.813 396.857 253.662 396.595 254.448L392.801 265.832L404.185 269.627C404.971 269.889 405.395 270.739 405.133 271.525C404.872 272.31 404.022 272.735 403.236 272.473L390.429 268.204ZM486.43 220.695L391.574 268.123L390.232 265.439L485.088 218.012L486.43 220.695Z" fill="#808080"/>
      <path id="Arrow 4" d="M75.244 154.948C75.0325 155.749 75.5104 156.57 76.3114 156.781L89.3642 160.227C90.1651 160.439 90.9859 159.961 91.1974 159.16C91.4088 158.359 90.9309 157.538 90.13 157.327L78.5275 154.264L81.5908 142.661C81.8022 141.86 81.3244 141.039 80.5234 140.828C79.7224 140.616 78.9016 141.094 78.6902 141.895L75.244 154.948ZM244.289 56.0123L75.9396 154.035L77.4491 156.627L245.798 58.6048L244.289 56.0123Z" fill="#808080"/>
      <path id="Arrow 8" d="M525.132 154.948C525.343 155.749 524.865 156.57 524.064 156.781L511.012 160.227C510.211 160.439 509.39 159.961 509.178 159.16C508.967 158.359 509.445 157.538 510.246 157.327L521.848 154.264L518.785 142.661C518.574 141.86 519.052 141.039 519.852 140.828C520.653 140.616 521.474 141.094 521.686 141.895L525.132 154.948ZM356.087 56.0123L524.436 154.035L522.927 156.627L354.578 58.6048L356.087 56.0123Z" fill="#808080"/>
      <path id="Arrow 3" d="M75.6303 402.169C76.2143 402.756 77.164 402.759 77.7516 402.175L87.3278 392.66C87.9154 392.076 87.9185 391.126 87.3345 390.538C86.7506 389.951 85.8009 389.948 85.2132 390.532L76.7011 398.99L68.2427 390.478C67.6588 389.89 66.7091 389.887 66.1214 390.471C65.5338 391.055 65.5308 392.005 66.1147 392.592L75.6303 402.169ZM75.5701 282.586L75.1944 401.106L78.1943 401.116L78.5701 282.595L75.5701 282.586Z" fill="#808080"/>
      <path id="Arrow 9" d="M524.746 402.169C524.162 402.756 523.212 402.759 522.624 402.175L513.048 392.66C512.46 392.076 512.457 391.126 513.041 390.538C513.625 389.951 514.575 389.948 515.163 390.532L523.675 398.99L532.133 390.478C532.717 389.89 533.667 389.887 534.254 390.471C534.842 391.055 534.845 392.005 534.261 392.592L524.746 402.169ZM524.806 282.586L525.181 401.106L522.182 401.116L521.806 282.595L524.806 282.586Z" fill="#808080"/>
    </g>
  </g>
</svg>
